<svg xmlns="http://www.w3.org/2000/svg" xmlns:xlink="http://www.w3.org/1999/xlink" version="1.1" x="0px" y="0px" viewBox="0 0 52 65" style="enable-background:new 0 0 52 52;" xml:space="preserve"><g><path d="M18,46c2.5-0.2,5,0.6,5-1c0-1.6-2.5-0.8-5-1c-0.6,0-1,0.4-1,1S17.4,46,18,46z"/><path d="M45.8,22.3l-2-0.5c-0.2-0.8-0.5-1.5-0.9-2.2c0.4-1,2.1-2.5,0.8-3.7c-0.5-0.3-1.5-2.1-2.9-1.2L39,15.7   c-0.7-0.4-1.5-0.7-2.2-0.9c-0.5-1.3-0.2-2.9-1.7-3.2c0-0.2,0-5.7,0-5.6c0-2.2-1.8-4-4-4H9C6.8,2,5,3.8,5,6c0,14.9,0,25.2,0,40   c0,2.2,1.8,4,4,4h22c2.2,0,4-1.8,4-4c0-1.4,0-9,0-8.6c1.5-0.3,1.3-1.9,1.7-3.2c0.8-0.2,1.5-0.5,2.2-0.9c1,0.4,2.5,2.1,3.7,0.8   c0.3-0.5,2.1-1.5,1.2-2.9l-1.1-1.8c0.4-0.7,0.7-1.5,0.9-2.2c1-0.4,3.2-0.2,3.2-2C46.9,24.7,47.4,22.7,45.8,22.3z M31.3,14.7   c-0.8,0.2-1.5,0.5-2.2,0.9c-1-0.4-2.5-2.1-3.7-0.8c-0.3,0.4-2.1,1.5-1.2,2.9l1.1,1.8c-0.4,0.7-0.7,1.5-0.9,2.2   c-1,0.4-3.2,0.2-3.2,2c0,0.1,0,1.5,0,1.4c0,1.8,2.2,1.6,3.2,2c0.2,0.8,0.5,1.5,0.9,2.2c-0.4,1-2.1,2.5-0.8,3.7   c0.5,0.3,1.5,2.1,2.9,1.2l1.8-1.1c0.7,0.4,1.5,0.7,2.2,0.9c0.4,1.4,0.4,3,1.7,3.2V40H7V9h26v2.5C31.3,12.2,32,12.9,31.3,14.7z M7,6   c0-1.1,0.9-2,2-2h22c2.4,0,2,2.9,2,3H7V6z M33,46c0,1.1-0.9,2-2,2H9c-1.1,0-2-0.9-2-2v-4h26V46z M45,24.9c-1.3,0.5-2.8,0.3-3.1,1.6   c-0.5,2.1-1.6,2.6-0.9,3.8l1,1.7l-0.5,0.5c-1.2-0.6-2.1-1.8-3.4-1c-0.7,0.4-1.4,0.7-2.2,0.9c-1.4,0.3-1.2,1.8-1.6,3.1   c-0.1,0-0.8,0-0.7,0l-0.5-2c-0.3-1.4-1.4-0.9-3.3-2c-1.2-0.7-2.1,0.5-3.4,1L26,32l1-1.8c0.7-1.2-0.4-1.6-0.9-3.8   c-0.3-1.4-1.8-1.2-3.1-1.6v-0.7l2-0.5c1.3-0.3,0.9-1.4,2-3.3c0.7-1.2-0.5-2.1-1-3.4l0.5-0.5c1.9,1.1,1.7,1.1,2.1,1.2   c1.1,0.4,1.3-0.5,3.5-1c1.4-0.4,1.2-1.8,1.6-3.1c0.1,0,0.8,0,0.7,0c0.5,1.3,0.2,2.8,1.6,3.1c2.1,0.5,2.6,1.6,3.8,0.9l1.7-1L42,17   c-0.6,1.2-1.8,2.1-1,3.4c0.4,0.7,0.7,1.4,0.9,2.2c0.3,1.4,1.8,1.2,3.1,1.6V24.9z"/><path d="M34,19.5c-2.8,0-5,2.2-5,5s2.2,5,5,5s5-2.2,5-5S36.7,19.5,34,19.5z M34,27.5c-4,0-4-6,0-6C38,21.5,38,27.5,34,27.5z"/></g><text x="0" y="67" fill="#000000" font-size="5px" font-weight="bold" font-family="'Helvetica Neue', Helvetica, Arial-Unicode, Arial, Sans-serif">Created by Graphic Tigers</text><text x="0" y="72" fill="#000000" font-size="5px" font-weight="bold" font-family="'Helvetica Neue', Helvetica, Arial-Unicode, Arial, Sans-serif">from the Noun Project</text></svg>