<svg xmlns="http://www.w3.org/2000/svg" xmlns:xlink="http://www.w3.org/1999/xlink" version="1.1" x="0px" y="0px" viewBox="0 0 66 82.5" enable-background="new 0 0 66 66" xml:space="preserve"><g><path d="M42.4,40.2c4.3,0,7.7-3.5,7.7-7.7c0-4.3-3.5-7.7-7.7-7.7c-4.3,0-7.7,3.5-7.7,7.7   C34.7,36.7,38.2,40.2,42.4,40.2z M38.8,31.6c0.4-0.4,1-0.4,1.4,0l1.3,1.3l3.1-3.1c0.4-0.4,1-0.4,1.4,0s0.4,1,0,1.4l-3.8,3.8   c-0.2,0.2-0.5,0.3-0.7,0.3s-0.5-0.1-0.7-0.3l-2-2C38.4,32.6,38.4,32,38.8,31.6z"/><path d="M61.1,1H4.9C2.8,1,1,2.7,1,4.9v7.8h64V4.9C65,2.7,63.3,1,61.1,1z M41.2,8.9H10.4c-0.6,0-1-0.4-1-1   s0.4-1,1-1h30.8c0.6,0,1,0.4,1,1S41.8,8.9,41.2,8.9z M46.6,8.6c-0.4,0.4-1,0.4-1.4,0c-0.4-0.4-0.4-1,0-1.4c0.4-0.4,1-0.4,1.4,0   C47,7.5,47,8.1,46.6,8.6z M51.5,8.6c-0.4,0.4-1,0.4-1.4,0c-0.4-0.4-0.4-1,0-1.4c0.4-0.4,1-0.4,1.4,0C51.9,7.5,51.9,8.2,51.5,8.6z    M56.3,8.6c-0.4,0.4-1,0.4-1.4,0c-0.4-0.4-0.4-1,0-1.4c0.4-0.4,1-0.4,1.4,0C56.7,7.6,56.7,8.2,56.3,8.6z"/><path d="M20,51c1.2,0,2.1-0.9,2.1-2.1s-0.9-2.1-2.1-2.1c-1.2,0-2.1,0.9-2.1,2.1S18.8,51,20,51z"/><path d="M1,61.1C1,63.2,2.8,65,4.9,65h56.2c2.1,0,3.9-1.8,3.9-3.9V14.7H1V61.1z M28.8,29.5l2-0.6   c0.2-0.7,0.5-1.3,0.8-2l-1-1.8c-0.2-0.4-0.2-0.9,0.2-1.2l3-3.1c0.3-0.3,0.8-0.4,1.2-0.2l1.8,1c0.6-0.3,1.3-0.6,2-0.8l0.6-2   c0.1-0.4,0.5-0.7,1-0.7l4.3,0c0,0,0,0,0,0c0.4,0,0.8,0.3,1,0.7l0.6,2c0.7,0.2,1.3,0.5,2,0.8l1.8-1c0.4-0.2,0.9-0.2,1.2,0.2l3,3   c0.3,0.3,0.4,0.8,0.2,1.2l-1,1.8c0.3,0.6,0.6,1.3,0.8,2l2,0.5c0.4,0.1,0.7,0.5,0.7,1l0,4.3c0,0.4-0.3,0.8-0.7,1l-2,0.6   c-0.2,0.7-0.5,1.3-0.8,2l1,1.8c0.2,0.4,0.2,0.9-0.2,1.2l-3,3c-0.3,0.3-0.8,0.4-1.2,0.2l-1.8-1c-0.6,0.3-1.3,0.6-1.9,0.8   c-0.1,0.6-0.3,1.5-0.4,1.9c-0.1,0.5-0.5,0.8-1,0.8l-4.4,0.1c0,0,0,0,0,0c-0.4,0-0.8-0.3-1-0.7l-0.6-2c-0.7-0.2-1.4-0.5-2-0.8   l-1.8,1c-0.4,0.2-0.9,0.2-1.2-0.2l-3-3c-0.3-0.3-0.4-0.8-0.2-1.2l1-1.8c-0.3-0.6-0.6-1.3-0.8-1.9l-2-0.6c-0.4-0.1-0.7-0.5-0.7-1   l0-4.3C28.1,30,28.4,29.6,28.8,29.5z M9.3,46.2l1.2-2.9c0.2-0.4,0.6-0.7,1-0.6l1.4,0.2c0.3-0.3,0.6-0.7,1-1l-0.2-1.4   c-0.1-0.4,0.2-0.9,0.6-1l2.9-1.2c0.4-0.2,0.9-0.1,1.2,0.3l0.9,1.1c0.5,0,0.9,0,1.4,0l0.9-1.1c0.3-0.4,0.8-0.5,1.2-0.3l2.9,1.2   c0.4,0.2,0.7,0.6,0.6,1l-0.2,1.4c0.3,0.3,0.7,0.6,1,1l1.4-0.2c0.4-0.1,0.9,0.2,1,0.6l1.2,2.9c0.2,0.4,0.1,0.9-0.3,1.2l-1.1,0.9   c0,0.4,0,0.9,0,1.3l1.1,0.9c0.4,0.3,0.5,0.8,0.3,1.2l-1.2,2.9c-0.2,0.4-0.6,0.7-1,0.6l-1.4-0.2c-0.3,0.3-0.6,0.6-0.9,0.9   c0.1,0.4,0.2,0.9,0.3,1.3c0.1,0.5-0.1,0.9-0.6,1.1l-3,1.3c-0.4,0.2-0.9,0.1-1.2-0.3l-0.9-1.1c-0.5,0-0.9,0-1.4,0l-0.9,1.1   c-0.2,0.2-0.5,0.4-0.8,0.4c-0.1,0-0.3,0-0.4-0.1l-2.9-1.2c-0.4-0.2-0.7-0.6-0.6-1l0.2-1.4c-0.3-0.3-0.7-0.6-1-0.9l-1.4,0.2   c-0.5,0.1-0.9-0.2-1-0.6l-1.2-2.9c-0.2-0.4-0.1-0.9,0.3-1.2l1.1-0.9c0-0.4,0-0.9,0-1.4l-1.1-0.9C9.3,47.1,9.1,46.6,9.3,46.2z"/></g><text x="0" y="81" fill="#000000" font-size="5px" font-weight="bold" font-family="'Helvetica Neue', Helvetica, Arial-Unicode, Arial, Sans-serif">Created by ProSymbols</text><text x="0" y="86" fill="#000000" font-size="5px" font-weight="bold" font-family="'Helvetica Neue', Helvetica, Arial-Unicode, Arial, Sans-serif">from the Noun Project</text></svg>